HIERARCHY
ROOT Hips
{
	OFFSET 0.000000 89.005402 0.000000
	CHANNELS 6 Xposition Yposition Zposition Xrotation Yrotation Zrotation
	JOINT Spine
	{
		OFFSET 0.116900 10.681000 0.373400
		CHANNELS 3 Xrotation Yrotation Zrotation
		JOINT Spine1
		{
			OFFSET 0.000000 13.840401 0.053500
			CHANNELS 3 Xrotation Yrotation Zrotation
			JOINT Spine2
			{
				OFFSET 0.000000 14.712700 -0.366200
				CHANNELS 3 Xrotation Yrotation Zrotation
				JOINT Neck
				{
					OFFSET 0.000000 35.415497 -3.314200
					CHANNELS 3 Xrotation Yrotation Zrotation
					JOINT Head
					{
						OFFSET 0.000000 16.899200 1.218300
						CHANNELS 3 Xrotation Yrotation Zrotation
						JOINT HeadTop_End
						{
							OFFSET 0.000000 22.206207 2.192500
							CHANNELS 3 Xrotation Yrotation Zrotation
							End Site
							{
								OFFSET 0.000000 22.314178 0.000000
							}
						}
					}
				}
				JOINT LeftShoulder
				{
					OFFSET 12.896400 26.716293 -4.548400
					CHANNELS 3 Xrotation Yrotation Zrotation
					JOINT LeftArm
					{
						OFFSET 19.027000 -4.857010 -1.718400
						CHANNELS 3 Xrotation Yrotation Zrotation
						JOINT LeftForeArm
						{
							OFFSET 24.179897 0.000000 0.000000
							CHANNELS 3 Xrotation Yrotation Zrotation
							JOINT LeftHand
							{
								OFFSET 27.156403 0.000000 0.000000
								CHANNELS 3 Xrotation Yrotation Zrotation
								JOINT LeftHandIndex1
								{
									OFFSET 16.441200 0.000000 0.000000
									CHANNELS 3 Xrotation Yrotation Zrotation
									JOINT LeftHandIndex2
									{
										OFFSET 4.821899 0.000000 0.000000
										CHANNELS 3 Xrotation Yrotation Zrotation
										JOINT LeftHandIndex3
										{
											OFFSET 6.386497 0.000000 0.000000
											CHANNELS 3 Xrotation Yrotation Zrotation
											JOINT LeftHandIndex4
											{
												OFFSET 5.188988 0.000000 0.000000
												CHANNELS 3 Xrotation Yrotation Zrotation
												End Site
												{
													OFFSET -0.178703 5.185913 0.000177
												}
											}
										}
									}
								}
								JOINT LeftHandThumb1
								{
									OFFSET 6.534897 -5.032593 5.900300
									CHANNELS 3 Xrotation Yrotation Zrotation
									JOINT LeftHandThumb2
									{
										OFFSET 3.818176 -2.204422 2.204423
										CHANNELS 3 Xrotation Yrotation Zrotation
										JOINT LeftHandThumb3
										{
											OFFSET 3.252098 -1.877594 1.877601
											CHANNELS 3 Xrotation Yrotation Zrotation
											JOINT LeftHandThumb4
											{
												OFFSET 5.251778 -3.032120 3.032117
												CHANNELS 3 Xrotation Yrotation Zrotation
												End Site
												{
													OFFSET 0.000023 6.780014 0.000000
												}
											}
										}
									}
								}
							}
						}
					}
				}
				JOINT RightShoulder
				{
					OFFSET -12.896300 26.716293 -4.548400
					CHANNELS 3 Xrotation Yrotation Zrotation
					JOINT RightArm
					{
						OFFSET -19.027000 -4.857010 -1.718400
						CHANNELS 3 Xrotation Yrotation Zrotation
						JOINT RightForeArm
						{
							OFFSET -24.179897 0.000000 0.000000
							CHANNELS 3 Xrotation Yrotation Zrotation
							JOINT RightHand
							{
								OFFSET -27.156403 0.000000 0.000000
								CHANNELS 3 Xrotation Yrotation Zrotation
								JOINT RightHandThumb1
								{
									OFFSET -6.591202 -4.852203 5.988100
									CHANNELS 3 Xrotation Yrotation Zrotation
									JOINT RightHandThumb2
									{
										OFFSET -3.818176 -2.204422 2.204423
										CHANNELS 3 Xrotation Yrotation Zrotation
										JOINT RightHandThumb3
										{
											OFFSET -3.252098 -1.877594 1.877601
											CHANNELS 3 Xrotation Yrotation Zrotation
											JOINT RightHandThumb4
											{
												OFFSET -5.251778 -3.032120 3.032117
												CHANNELS 3 Xrotation Yrotation Zrotation
												End Site
												{
													OFFSET -0.000023 6.780014 0.000000
												}
											}
										}
									}
								}
								JOINT RightHandIndex1
								{
									OFFSET -16.029404 0.000000 0.000000
									CHANNELS 3 Xrotation Yrotation Zrotation
									JOINT RightHandIndex2
									{
										OFFSET -5.213303 0.000000 0.000000
										CHANNELS 3 Xrotation Yrotation Zrotation
										JOINT RightHandIndex3
										{
											OFFSET -6.386528 0.000000 0.000000
											CHANNELS 3 Xrotation Yrotation Zrotation
											JOINT RightHandIndex4
											{
												OFFSET -5.189026 0.000000 0.000000
												CHANNELS 3 Xrotation Yrotation Zrotation
												End Site
												{
													OFFSET 0.236702 5.183624 0.001972
												}
											}
										}
									}
								}
							}
						}
					}
				}
			}
		}
	}
	JOINT LeftUpLeg
	{
		OFFSET 14.073000 -7.904099 -1.463000
		CHANNELS 3 Xrotation Yrotation Zrotation
		JOINT LeftLeg
		{
			OFFSET -0.109806 -34.073280 4.093200
			CHANNELS 3 Xrotation Yrotation Zrotation
			JOINT LeftFoot
			{
				OFFSET 0.109806 -29.899420 -6.319000
				CHANNELS 3 Xrotation Yrotation Zrotation
				JOINT LeftToeBase
				{
					OFFSET 1.551100 -14.988700 20.535801
					CHANNELS 3 Xrotation Yrotation Zrotation
					JOINT LeftToe_End
					{
						OFFSET 0.221200 0.570800 13.248301
						CHANNELS 3 Xrotation Yrotation Zrotation
						End Site
						{
							OFFSET 0.000000 13.262435 0.000000
						}
					}
				}
			}
		}
	}
	JOINT RightUpLeg
	{
		OFFSET -13.839300 -7.904099 -1.463000
		CHANNELS 3 Xrotation Yrotation Zrotation
		JOINT RightLeg
		{
			OFFSET 0.109694 -34.073219 4.093300
			CHANNELS 3 Xrotation Yrotation Zrotation
			JOINT RightFoot
			{
				OFFSET -0.109694 -29.899384 -6.319200
				CHANNELS 3 Xrotation Yrotation Zrotation
				JOINT RightToeBase
				{
					OFFSET -1.551100 -14.988700 20.535801
					CHANNELS 3 Xrotation Yrotation Zrotation
					JOINT RightToe_End
					{
						OFFSET -0.221200 0.570900 13.248299
						CHANNELS 3 Xrotation Yrotation Zrotation
						End Site
						{
							OFFSET 0.000000 13.262440 0.000000
						}
					}
				}
			}
		}
	}
}
MOTION
Frames: 4
Frame Time: 0.033333
249.384476 62.659203 94.806564 32.061717 5.791673 -288.784442 18.119114 7.833563 21.805722 3.525129 0.911921 4.166501 3.533402 0.789749 4.191138 -2.040264 -0.607348 -0.127944 -10.212048 -4.650087 -1.456246 -0.000000 -0.000004 0.000001 13.586758 26.185311 25.855305 -113.017221 12.453225 -26.779029 0.000142 -104.908147 0.000161 30.650470 -5.839991 22.629523 0.386979 -10.384186 -0.939232 0.040536 0.688743 -6.736935 0.228643 1.622265 -16.043570 0.000000 0.000001 -0.000001 -2.958254 -5.424653 15.769124 3.670996 4.169638 3.141190 -15.263965 -16.729918 9.538703 0.000001 0.000001 -0.000002 5.928427 30.941522 11.484747 -69.943418 -5.949307 -11.680342 -0.000007 50.512469 0.000008 -52.940434 -10.961415 -91.931840 -20.862545 13.168637 -49.068847 4.558579 -6.764148 -4.086531 -12.490173 10.171034 -12.213708 0.000001 0.000001 -0.000002 3.312143 3.375934 -39.152348 0.067040 -0.788231 9.723264 0.065533 -0.779348 9.612354 0.000000 -0.000000 0.000001 -91.800017 -16.230128 17.833878 77.467261 5.456670 -6.824109 -15.330590 27.546112 -14.508295 6.947764 0.000002 0.000007 -0.000000 -0.000000 0.000002 -91.326774 -4.575884 -37.095017 90.638946 -10.634796 1.713739 -69.805093 -7.708804 -9.526592 -29.426432 -0.000021 -0.000003 0.000002 0.000000 0.000000 
253.121643 60.187538 95.922630 31.812098 2.900844 -296.873161 19.757485 7.741861 21.037942 3.743091 0.794753 3.748766 3.749300 0.682765 3.769443 -2.532500 -0.667511 -0.975802 -11.609352 -7.210155 -1.495636 0.000000 -0.000001 0.000001 14.056473 15.443761 17.742779 -105.607968 10.982892 -26.721607 0.000018 -108.960218 0.000014 26.194329 -6.934680 29.739333 0.372192 -9.686148 -0.988501 0.040520 0.688513 -6.734485 0.269756 1.758918 -17.437509 0.000000 -0.000002 -0.000001 -2.307206 -5.006613 14.877161 3.669231 4.170294 3.141320 -15.265695 -16.732548 9.539163 -0.000000 -0.000001 0.000000 5.287835 31.052892 12.297003 -67.372542 -5.528894 -13.172633 -0.000012 38.227083 0.000001 -57.519577 -2.254140 -92.314542 -14.521954 11.415876 -35.554983 4.574655 -6.808693 -4.085365 -12.469468 10.130894 -12.229954 0.000001 0.000001 -0.000003 4.708728 11.278313 -19.750817 0.068536 -0.796891 9.830935 0.066371 -0.784301 9.674541 -0.000001 -0.000002 0.000000 -94.357192 -15.148682 14.982063 73.637123 4.338886 -6.373194 -16.301817 27.469597 -13.828558 7.771201 0.000004 -0.000001 -0.000000 0.000000 0.000001 -88.530931 -6.753603 -33.777331 100.075877 -11.751397 2.010792 -72.325215 -10.624387 -8.384725 -29.821490 0.000016 0.000007 0.000001 0.000000 -0.000000 
256.653381 57.632088 96.845215 30.899684 0.018266 -304.554993 21.300616 7.568465 19.938743 4.094773 0.717155 3.298789 4.100423 0.614578 3.315938 -3.050157 -0.721848 -1.760974 -12.799201 -9.595643 -1.358688 -0.000001 0.000000 0.000000 11.689020 5.155682 9.391864 -97.650723 9.312767 -26.696913 -0.000017 -111.680123 -0.000025 22.547240 -8.809602 38.387487 0.359287 -8.977886 -1.038290 0.040478 0.688258 -6.732041 0.314878 1.896526 -18.851925 0.000005 0.000001 0.000001 -1.642229 -4.588170 13.959285 3.667459 4.170978 3.141404 -15.267259 -16.735189 9.539666 -0.000003 0.000001 -0.000001 5.040578 30.511271 12.496522 -62.548086 7.378737 -14.279104 -0.000002 0.000003 0.000001 -64.330929 9.473753 -76.650070 -8.496005 9.736329 -23.392017 4.629164 -6.955433 -4.093174 -12.397079 9.996212 -12.279526 0.000002 0.000000 -0.000002 2.216825 13.157517 -5.502441 0.073607 -0.825615 10.189385 0.073609 -0.825626 10.189385 0.000000 -0.000001 -0.000001 -95.254850 -13.725820 12.493870 68.372796 3.052300 -5.792837 -16.617244 27.480593 -13.482943 8.543141 0.000006 -0.000021 0.000002 0.000000 -0.000000 -85.659820 -9.294980 -30.405099 108.622868 -12.578552 2.083858 -74.347108 -13.638833 -6.979068 -30.428114 0.000016 0.000018 -0.000001 -0.000001 0.000000 
259.992554 55.082417 97.579453 29.353759 -2.732923 -311.810730 22.682606 7.281257 18.483351 4.610778 0.689911 2.831399 4.617362 0.595135 2.845791 -3.589600 -0.770693 -2.448905 -13.753055 -11.742215 -0.999287 -0.000002 0.000001 -0.000001 7.419603 -3.090897 0.706614 -89.684468 7.575156 -26.914736 -0.000006 -112.807719 -0.000009 19.993545 -11.175894 46.607473 0.348434 -8.267606 -1.088034 0.040450 0.688010 -6.729604 0.363536 2.033351 -20.270627 -0.000004 -0.000001 -0.000001 -0.969974 -4.174121 13.024422 3.665722 4.171659 3.141446 -15.268830 -16.737858 9.540186 -0.000000 -0.000002 0.000004 4.604248 29.531535 12.845684 -60.824037 3.223664 -15.366754 -0.000001 -0.000001 -0.000000 -73.493218 11.982088 -64.095950 -3.945251 8.006610 -14.945774 4.730018 -7.225433 -4.110765 -12.263060 9.747671 -12.370180 0.000000 -0.000001 0.000003 2.123927 12.963613 -5.462834 0.083444 -0.878533 10.850350 0.083441 -0.878564 10.850345 0.000001 0.000001 -0.000002 -94.067476 -11.777410 10.801324 61.211493 1.531230 -4.804695 -15.924852 27.593083 -13.826203 9.199411 -0.000001 -0.000001 -0.000001 -0.000001 0.000000 -82.700333 -12.263657 -27.203114 116.262087 -13.437813 1.866487 -76.015334 -16.474082 -5.315136 -31.397461 -0.000033 -0.000007 0.000000 0.000001 0.000000 
